<svg viewBox="0 0 615.9 800" xmlns="http://www.w3.org/2000/svg"><g fill="#31748e"><path d="m168.2 592.8c0-.5-.3-.9-.5-1.3l-.1.7c.4.5.6.6.6.6z"/><path d="m168.2 600.8v-1.6c-.8-.8-1.2-1.2-1.6-1.6s-.8-.8-1.6-1.6c1.6 1.6 1.6 3.2 3.2 4.8z"/><path d="m206.1 264.1v.4c15.2-5.5 22.2-7.8 0-.4z"/><path d="m166.6 597.6 1-5.3c-.2-.2-.4-.4-1-1-1.6 1.5 0 4.7 0 6.3z"/><path d="m512.8 787.3c-14.2-33.2-30-64.8-45.8-98-15.8-19-26.9-42.7-39.5-64.8-14.2-22.1-31.6-45.8-47.4-64.8-3.2-4.7-3.2-9.5-3.2-14.2-12.6-17.4-25.3-41.1-39.5-61.6v1.6c-6.3-11.1-7.9-20.5-15.8-31.6-1.6 0-1.6-1.6-3.2-1.6 3.2-4.7-47.4-56.9-47.4-63.2l-1.6-3.2c-11.1-23.7-15.8-52.2-28.5-71.1-4.7-3.2-9.5-6.3-14.2-9.5 0-4.7-4.7-3.2-6.3-7.9 3.2-15.8-4.7-19-4.7-12.6-1.6-1.6-3.2-4.7-6.3-7.9-1.6-3.2-1.6-6.3-3.2-11.1v-1.1c-1.1.4-2 .7-3.2 1.1-1.6-1.6-1.6-1.6-1.6-3.2l-4.7-4.7-.1-.1c3-1 5-1.7-.1-.1l-1.3-1.3v1.6c-1.2.4-2.1.7-2.8 1-7.4 2.3-21.3 6.8-46.2 14.8v1.6 1.6c1.6 3.2 0 6.3-1.6 7.9-1.6-1.6-1.6 0-1.6 1.6-3.2 1.6-6.3 1.6-3.2 1.6v1.6l1.6 1.6c0 1.6-1.6 3.2-1.6 7.9-3.2 3.2 7.9 23.7 7.9 25.3l-1.6-1.6c0 11.1-6.3 19-4.7 30 0 30 6.3 61.6 7.9 90.1 3.2 0-1.6-6.3 3.2-6.3 1.6 15.8-1.6 33.2-1.6 49-1.6 3.2-1.6 6.3-3.2 7.9-1.6 6.3 1.6 3.2 1.6 6.3l-3.2 1.6c3.2 4.7-3.2 7.9-1.6 14.2 1.6 0 1.6 1.6 1.6 3.2-3.2 0 1.6 6.3-1.6 6.3v3.2c1.6 1.6 14.2 20.5 15.8 23.7v1.6c0 3.2 3.2 4.7 3.2 1.6v3.2 3.2c0 1.6-1.6 1.6-3.2 1.6 1.6 1.6 1.6 4.7 1.6 6.3 1.6-6.3 4.7-14.2 6.3-20.5 1.6 1.6 0 6.3 1.6 9.5-1.6 3.2-3.2 11.1-4.7 15.8 0 1.6 4.7 1.6 3.2 4.7-3.2 1.6 0 3.2-1.6 4.7-1.6-1.6-1.6-4.7-1.6-7.9-3.2 1.6-1.6 6.3-1.6 7.9 1.6 1.6 0 6.3 1.6 9.5-1.6 0-1.6 0-1.6 1.6s0 1.6-1.6 1.6c0 1.6 1.6 3.2 1.6 1.6 1.6 0 1.6 0 1.6-1.6.2-.2.2-.4.3-.6.3.4.5.2.2-.4.6-2-.2-5.1 1.2-3.7v-1.6s.6.9 1.1 1.9l28.9-156.8c-1.6 0-1.6 1.6-1.6 1.6v-4.7c1.6 0 1.6 1.6 3.2 0l9.5-30s106.1 140.7 193.2 254.9c-13 4.1-26.5 8.3-24 5.9-83.8 22.1-151.8 9.5-222.9-47.4-12.6-6.3-50.6-49-71.1-110.7-22.1-60.1-3.2-139.1 7.9-164.4l1.6-4.7c9.5-28.5 36.4-58.5 50.6-79 6.3-11.1 14.2-19 20.5-28.5-4.7 1.6-20.5 3.2-23.7 4.7 9.5-7.9 19-15.8 22.1-20.5 19-19 4.7-14.2-7.9-12.6-7.9 3.2-1.6-7.9-14.2-1.6 6.3-6.3 11.1-7.9 19-14.2-1.6-3.2-22.1 19-19 11.1 7.9-4.7 14.2-12.6 22.1-17.4-4.7-1.6-26.9 17.4-28.5 14.2 3.2-4.7 23.7-12.6 23.7-17.4 0-1.6-7.9 4.7-11.1 6.3 22.1-19 36.4-30 9.5-19 7.9-4.7 20.5-11.1 30-15.8-4.7 1.6-12.6 6.3-17.4 7.9 4.7-3.2 11.1-6.3 14.2-7.9-1.6 0-1.6 0-3.2 0-1.8.6-3.2 1.2-4.7 1.9 1-.6 1.9-1.1 3.1-1.9-3.2 0-6.3 0-11.1 1.6-14.2 4.7-26.9 7.9-33.2 12.6-50.6 36.4-91.7 88.5-113.8 147 1.6 0 4.7-1.6 3.2 3.2-4.7 15.8-12.6 26.9-14.2 42.7l1.6 1.6c-3.2 14.2-6.3 26.9-9.5 39.5-1.6 25.3 0 49 4.7 74.3 1.6-1.6 1.6-1.6 1.6 1.6 1.6 9.5 4.7 23.7 7.9 37.9l1.6 6.3c1.6 1.6 1.6 1.6 3.2 1.6 1.6 6.3 3.2 11.1 4.7 17.4 30 64.8 83.8 117 151.8 147 14.2 4.7 30 9.5 44.3 12.6 20.5 6.3 47.4 3.2 68 6.3-1.6-7.9 49-1.6 37.9-11.1 12.6 0 33.2-1.6 33.2-4.7 1.6-9.5 11.1-6.3 39.5-20.5 1.8-.8 3.3-1.3 4.9-2 59.2 77.7 108.9 142 108.9 139.5 4.6-6.9-.1-5.3-.1-13.2z"/></g><path d="m609.2 333.6c-1.6 1.6-1.6 1.6-1.6-1.6-1.6-9.5-4.7-23.7-7.9-37.9l-1.6-6.3c-1.6-1.6-1.6-1.6-3.2-1.6-1.6-6.3-3.2-11.1-6.3-17.4-31.6-63.2-83.8-117-151.8-147-14.2-4.7-30-9.5-44.3-12.6-20.5-6.3-47.4-3.2-68-6.3 1.6 7.9-49 1.6-37.9 11.1-12.6 0-33.2 1.6-33.2 6.3-1.6 9.5-11.1 6.3-39.5 20.5-2.8 1.2-5.4 2.3-7.8 3.3-60.6-79.7-112.2-146.6-112.2-144-1.6 7.9 3.1 6.3 3.1 14.2 14.2 33.2 30 64.8 45.8 98 15.8 19 26.9 42.7 39.5 64.8 14.2 22.1 31.6 45.8 47.4 64.8 3.2 4.7 3.2 9.5 3.2 14.2 12.6 17.4 25.3 41.1 39.5 61.6v-1.6c6.3 11.1 7.9 20.5 15.8 31.6 1.6 0 1.6 1.6 3.2 1.6-3.2 4.7 47.4 56.9 47.4 63.2l1.6 3.2c11.1 23.7 15.8 52.2 28.5 71.1 4.7 3.2 9.5 6.3 14.2 9.5 0 4.7 4.7 3.2 6.3 7.9-3.2 15.8 4.7 19 4.7 12.6 1.6 1.6 3.2 4.7 6.3 7.9 1.6 3.2 1.6 6.3 3.2 11.1l1.4 2.8c1.1-.4 2.2-.8 3.3-1.2 1.6 1.6 1.6 1.6 1.6 3.2l4.7 4.7 1.3 1.3c-3.8 1.2-7.2 2.4.1.1l.1.1c1.2-.4 2.1-.7 2.8-1 7.4-2.3 21.3-6.8 46.2-14.8v-1.6-1.4c-1.6-3.2 0-6.3 1.6-7.9 0-1.6-1.6-3.2-1.6-4.7 3.2-1.6 6.3-1.6 3.2-1.6v-3.2l-1.6-1.6c0-1.6 1.6-3.2 1.6-7.9 3.2-3.2-7.9-23.7-7.9-25.3l1.6 1.6c0-11.1 6.3-19 4.7-30-1.6-30-7.9-63.2-9.5-90.1-3.2 0 1.6 6.3-3.2 6.3-1.6-15.8 1.6-33.2 1.6-49 1.6-3.2 1.6-6.3 3.2-7.9 1.6-6.3-1.6-3.2-1.6-6.3l3.2-1.6c-3.2-4.7 3.2-7.9 1.6-14.2-1.6 0-1.6-1.6-1.6-3.2 3.2 0-1.6-6.3 1.6-6.3 0-1.6 0-1.6 0-3.2-1.6-1.6-14.2-20.5-15.8-23.7v-1.6c0-3.2-3.2-4.7-3.2-1.6v-3.2-3.2c0-1.6 1.6-1.6 3.2-1.6-1.6-1.6-1.6-4.7-1.6-6.3-1.6 6.3-4.7 14.2-6.3 20.5-1.6-1.6 0-6.3-1.6-9.5 1.6-3.2 3.2-11.1 4.7-15.8 0-1.6-4.7-1.6-3.2-4.7 3.2-1.6 0-3.2 1.6-4.7 1.6 1.6 1.6 4.7 1.6 7.9 3.2-1.6 1.6-6.3 1.6-7.9-1.6-1.6 0-6.3-1.6-9.5 1.6 0 1.6-1.6 1.6-1.6 0-1.6 0-1.6 1.6-1.6 0-1.6-1.6-3.2-1.6-1.6-1.6 0-1.6 0-1.6 1.6-1.6 1.6 0 6.3-1.6 4.7v1.6s-.6-.9-1.1-1.9l-28.7 157c1.6 0 1.6-1.6 1.6-1.6v4.7c-1.6 0-1.6-1.6-3.2 0l-9.5 30s-103.6-137.4-190-250.8c13.9-4.3 29.8-9.5 27.2-6.9 82.2-22.1 151.8-11.1 222.9 44.3 12.6 6.3 50.6 49 72.7 109.1 23.7 60.1 4.7 139.1-6.3 164.4l-3.2 9.5c-9.5 28.5-36.4 58.5-50.6 80.6-6.3 11.1-12.6 19-20.5 28.5 4.7-1.6 20.5-3.2 23.7-4.7-9.5 7.9-19 15.8-22.1 20.5-19 19-4.7 14.2 7.9 12.6 7.9-3.2 1.6 7.9 14.2 1.6-6.3 6.3-11.1 7.9-19 14.2 1.6 3.2 22.1-19 19-11.1-7.9 4.7-14.2 12.6-22.1 17.4 4.7 1.6 26.9-19 28.5-14.2-1.6 1.6-22.1 11.1-22.1 14.2 0 .8 2.1-.5 4.5-2.3-18 15.4-27 23.3-2.9 13.4-7.9 4.7-20.5 11.1-28.5 15.8 4.7-1.6 12.6-6.3 15.8-7.9-4.7 3.2-11.1 6.3-14.2 7.9h3.2c1.8-.6 3.2-1.2 4.7-1.9-1 .6-1.9 1.1-3.1 1.9 3.2 0 6.3 0 11.1-1.6 14.2-4.7 26.9-9.5 33.2-14.2 53.7-31.6 93.3-83.8 113.8-143.8-1.6 0-4.7 1.6-3.2-3.2 3.2-15.8 12.6-26.9 14.2-44.3l-1.6-1.6c3.2-12.6 6.3-25.3 9.5-37.9 1.5-25.2-1.7-48.9-6.4-74.2z" fill="#bcbcbc"/><path d="m438.5 199.2v1.6l1.6 1.6c.4.4.8.8 1.6 1.6-1.7-1.6-1.7-3.2-3.2-4.8z" fill="#bcbcbc"/><path d="m438.5 207.2c0 .5.3.9.5 1.3l.1-.7c-.5-.5-.6-.6-.6-.6z" fill="#bcbcbc"/><path d="m440 202.4-1 5.3c.2.2.4.4 1 1 1.6-1.5 0-4.7 0-6.3z" fill="#bcbcbc"/><path d="m405.3 539.1-.2-.4c-15.1 5.5-21.9 7.8.2.4z" fill="#bcbcbc"/></svg>