<?xml version="1.0" encoding="UTF-8"?>
<svg xmlns="http://www.w3.org/2000/svg" viewBox="0 0 523.3 162.6">
      <path d="M20.6,138.2l10.2-24.6,9.5,24.6s-19.7,0-19.7,0ZM60,156.9c-.7,0-1.2.3-1.7.5-.4.2-.9.4-1.3.4-1,0-1.7-1-2.7-3.5l-21.2-55c-.3-.6-.7-1-1.2-1s-1,.5-1.5,1.3c-.5,1-1.3,1.7-2.3,2.6-1.3,1.2-2,2.1-1.6,3.7l.5,2.1c.4,1.5.3,2.1-.4,3.7l-16,38.6c-2.6,6.3-4,7.6-5.2,7.6s-.8-.2-1.2-.4c-.5-.2-1-.5-1.7-.5C.8,157,0,158.2,0,159.3s1,2.6,2.8,2.6,1.7,0,3-.1c2-.1,4.4-.3,6.6-.3s2.3,0,3.7.2c1.5.1,3.1.2,4.4.2s2.8-1.4,2.8-2.6-.8-2.3-2.5-2.3-1,.2-1.6.4-1.3.5-2.2.5-1.7-.3-2.1-1c-.9-1.3-.6-3.7.7-6.7l3.2-7.7h23.1l4.3,11.3c.6,1.6.7,2.8.3,3.4-.3.4-.9.7-1.8.7s-.8-.2-1.3-.4-1.1-.5-1.7-.5c-1.6,0-2.5,1.2-2.5,2.3s1,2.6,2.8,2.6,2.1,0,3.4-.1c1.8-.1,4-.2,6.7-.2s3.6.1,5,.2c1.1,0,2,.1,2.6.1,1.8,0,2.8-1.4,2.8-2.6s-.9-2.3-2.5-2.3" style="fill: #534743;"/>
      <path d="M110.9,144.2c-1.3,0-1.8.8-1.9,1.5-1.2,7.9-7,11.5-18.2,11.5h-6.2c-2.8,0-3.5-.8-3.5-3.9v-43.6c0-4.1.7-4.8,2.4-4.8s1.7.3,2.3.5c.5.2,1,.4,1.6.4,1.8,0,2.5-1.2,2.5-2.4s-1-2.5-2.8-2.5-2.9,0-4.4.2c-1.7,0-3.5.2-5.5.2s-3.8,0-5.5-.2c-1.5,0-3-.2-4.4-.2s-2.8,1.3-2.8,2.5.8,2.4,2.5,2.4,1-.2,1.6-.4c.7-.2,1.4-.5,2.3-.5,1.7,0,2.4.7,2.4,4.8v43.2c0,4.1-.7,4.8-2.4,4.8s-1.7-.3-2.3-.5c-.5-.2-1-.4-1.6-.4-1.8,0-2.5,1.2-2.5,2.4s1,2.5,2.8,2.5,2.7,0,4-.2c1.7-.1,3.6-.2,6.1-.2h13.4c2.7,0,5.2,0,7.9.2,2.8,0,5.8.2,9.2.2s2.1-.2,2.2-1.7c.4-4.5,2.4-9.7,3.5-12.5.3-.8.3-1.6-.2-2.2-.5-.7-1.4-1.1-2.4-1.1" style="fill: #534743;"/>
      <path d="M139.4,101.2h-11.8c-2.8,0-4.7,0-6.5-.2-1.4,0-2.5-.2-3.9-.2s-2.8,1.3-2.8,2.5.8,2.4,2.6,2.4.9-.2,1.5-.4c.7-.2,1.4-.5,2.3-.5,1.7,0,2.4.7,2.4,4.8v43.2c0,4.1-.7,4.8-2.4,4.8s-1.7-.3-2.3-.5c-.5-.2-1.1-.4-1.6-.4-1.7,0-2.5,1.2-2.5,2.4s1,2.5,2.8,2.5,2.9,0,4.4-.2c1.7-.1,3.5-.2,5.5-.2s3.8.1,5.5.2c1.5,0,3,.2,4.4.2s2.8-1.3,2.8-2.5-.8-2.4-2.5-2.4-1,.2-1.6.4c-.7.2-1.4.5-2.3.5-1.7,0-2.4-.7-2.4-4.8v-43.9c0-2.8.7-3.5,3.5-3.5h4.4c9.1,0,14.4,4.5,14.4,12.2s-5.1,13.2-12.5,13.2-3.1-.4-4.1-.7c-.6-.2-1.1-.3-1.6-.3-1.2,0-2,.9-2,2.2s.5,1.6,1.5,2c1.7.7,4.2,1.1,6.8,1.1,12.2,0,19.5-9,19.5-17.6s-7.9-16.4-21.7-16.4" style="fill: #534743;"/>
      <path d="M196.6,161.6c2.8,0,5.8.2,9.2.2s2.1-.2,2.2-1.7c.3-3.9,1.7-7.6,2.7-10.1.5-1.4.9-2.3.9-2.9,0-1.5-1-2.4-2.8-2.4s-1.8.8-1.9,1.5c-1.2,7.8-6.7,11-19,11h-6.2c-2.8,0-3.5-.8-3.5-3.9v-20.1h9.9c5.8,0,7,1.5,7,4s-.3,1.7-.5,2.4c-.2.5-.4,1-.4,1.5,0,1.7,1.3,2.5,2.6,2.5s2.7-1,2.7-2.8-.1-2.9-.2-4.5c-.1-1.7-.3-3.4-.3-5.3s.1-3.6.3-5.3c.1-1.5.2-3,.2-4.4s-1.4-2.8-2.7-2.8-2.6.9-2.6,2.5.2.9.4,1.5c.2.7.5,1.4.5,2.4,0,2.5-1.2,4-7,4h-9.9v-20c0-2.8.7-3.5,3.6-3.5h7.6c5.8,0,13.1,1.9,15.2,11.1.2.9.9,1.4,2,1.4s2.9-.9,2.9-2.2-.5-1.8-1.1-3.3c-.9-2.1-2.2-5.1-2.2-7.7s0-.6,0-.8v-.6c0-2.2-1.2-2.4-2.5-2.4s-1.2,0-1.8,0c-.7,0-1.5,0-2.8,0h-24.3c-2.8,0-4.8,0-6.5-.2-1.4,0-2.5-.2-3.9-.2s-2.8,1.3-2.8,2.5.8,2.4,2.6,2.4.9-.2,1.5-.4c.7-.2,1.4-.5,2.3-.5,1.7,0,2.4.7,2.4,4.8v43.2c0,4.1-.7,4.8-2.4,4.8s-1.7-.3-2.3-.5c-.5-.2-1-.4-1.6-.4-1.7,0-2.5,1.2-2.5,2.4s1,2.5,2.8,2.5,2.7,0,4-.2c1.7-.1,3.6-.2,6.1-.2h14.3c2.7,0,5.2,0,7.9.1" style="fill: #534743;"/>
      <path d="M267.5,161.5h0c.4.5.8.7,1.3.7s1.4-.3,1.4-1.7v-50.7c0-4.1.7-4.8,2.4-4.8s1.7.3,2.3.5c.5.2,1.1.4,1.6.4,1.7,0,2.5-1.2,2.5-2.4s-1-2.5-2.8-2.5-2.8,0-4.2.2c-1.4,0-2.8.2-4.2.2s-2.8,0-4.2-.2c-1.4,0-2.9-.2-4.3-.2s-2.8,1.3-2.8,2.5.8,2.4,2.5,2.4,1-.2,1.6-.4c.7-.2,1.4-.5,2.3-.5,1.7,0,2.4.7,2.4,4.8v38.2l-40.3-45.1c-1.5-1.7-2.7-2-4.9-2s-2.3-.2-2.9-.3c-.4,0-.7-.2-1.1-.2-1,0-1.7.8-1.7,1.8s.3,1.1.8,1.6l5.5,5.7c1.1,1.1,1.9,3.5,1.9,6.3v37.2c0,4.1-.7,4.8-2.4,4.8s-1.7-.3-2.3-.5c-.5-.2-1.1-.4-1.6-.4-1.8,0-2.5,1.2-2.5,2.4s1,2.5,2.8,2.5,2.8-.1,4.2-.2c1.4,0,2.8-.2,4.2-.2s2.8,0,4.2.2c1.4,0,2.9.2,4.3.2s2.8-1.3,2.8-2.5-.8-2.4-2.5-2.4-1,.2-1.6.4c-.7.2-1.4.5-2.3.5-1.7,0-2.4-.7-2.4-4.8v-36l39.8,44.6h.2Z" style="fill: #534743;"/>
      <path d="M299,109.1c0-2.8.7-3.5,3.5-3.5h4.4c7.6,0,11.2,3.4,11.2,10.7s-4.3,12.4-11.5,12.4h-3.2c-1.3,0-1.9,1-1.9,2s.7,2.2,1.9,2.2h3.7c9.1,0,14.6,4.5,14.6,12,0,10.8-9.3,12.4-14.8,12.4h-3.9c-3.5,0-4-1.1-4-4.9v-43.3h0ZM288.7,157.8c-.9,0-1.7-.3-2.3-.5-.5-.2-1.1-.4-1.6-.4-1.7,0-2.5,1.2-2.5,2.4s1,2.5,2.8,2.5,2.9,0,4.4-.2c1.8-.1,3.6-.2,5.7-.2h12.1c13.2,0,22-6.7,22-16.6s-1.8-13.2-13.5-15.3c5.1-1.8,9.9-6,9.9-13.3s-7-15-19.7-15-3.5,0-5.2,0h-5.2c-2.8,0-4.8,0-6.6-.2-1.4,0-2.6-.2-3.9-.2s-2.8,1.3-2.8,2.5.8,2.4,2.5,2.4,1-.2,1.6-.4c.7-.2,1.4-.5,2.3-.5,1.7,0,2.4.7,2.4,4.8v43.2c0,4.1-.7,4.8-2.4,4.8" style="fill: #534743;"/>
      <path d="M376.7,144.2c-1.3,0-1.8.8-1.9,1.5-1.2,7.9-7,11.5-18.2,11.5h-6.2c-2.8,0-3.5-.8-3.5-3.9v-43.6c0-4.1.7-4.8,2.4-4.8s1.7.3,2.3.5c.5.2,1,.4,1.6.4,1.7,0,2.5-1.2,2.5-2.4s-1-2.5-2.8-2.5-2.9,0-4.4.2c-1.7,0-3.5.2-5.5.2s-3.8,0-5.5-.2c-1.5,0-3-.2-4.4-.2s-2.8,1.3-2.8,2.5.8,2.4,2.5,2.4,1-.2,1.6-.4c.7-.2,1.4-.5,2.3-.5,1.7,0,2.4.7,2.4,4.8v43.2c0,4.1-.7,4.8-2.4,4.8s-1.7-.3-2.3-.5c-.5-.2-1-.4-1.6-.4-1.8,0-2.5,1.2-2.5,2.4s1,2.5,2.8,2.5,2.7,0,4-.2c1.7-.1,3.6-.2,6.1-.2h13.4c2.7,0,5.2,0,7.9.2,2.8,0,5.8.2,9.2.2s2.1-.2,2.2-1.7c.4-4.5,2.4-9.7,3.5-12.5.3-.8.3-1.6-.2-2.2-.5-.7-1.4-1.1-2.4-1.1" style="fill: #534743;"/>
      <path d="M399.4,105c.9,0,1.7.3,2.3.5.5.2,1,.4,1.6.4,1.7,0,2.5-1.2,2.5-2.4s-1-2.5-2.8-2.5-2.9,0-4.4.2c-1.7,0-3.5.2-5.5.2s-3.8,0-5.5-.2c-1.5,0-3-.2-4.4-.2s-2.8,1.3-2.8,2.5.8,2.4,2.5,2.4,1-.2,1.6-.4c.7-.2,1.4-.5,2.3-.5,1.7,0,2.4.7,2.4,4.8v43.2c0,4.1-.7,4.8-2.4,4.8s-1.7-.3-2.3-.5c-.5-.2-1.1-.4-1.6-.4-1.8,0-2.5,1.2-2.5,2.4s1,2.5,2.8,2.5,2.9,0,4.4-.2c1.7-.1,3.5-.2,5.5-.2s3.8.1,5.5.2c1.5,0,3,.2,4.4.2s2.8-1.3,2.8-2.5-.8-2.4-2.5-2.4-1,.2-1.6.4c-.7.2-1.4.5-2.3.5-1.7,0-2.4-.7-2.4-4.8v-43.2c0-4.1.7-4.8,2.4-4.8" style="fill: #534743;"/>
      <path d="M460.3,144.5c-1.4,0-1.8.9-1.9,1.3-1.9,7.8-9.4,12.6-19.7,12.6s-23.7-11.8-23.7-27.3,9.2-26.6,23.5-26.6,16.4,3.7,18.1,9.9c.3,1.2.6,2,2.1,2s2.5-.9,2.5-2.1-.2-.8-.4-1.4c-.6-1.5-1.6-4.3-2.3-10-.2-1.4-1-1.6-2.2-1.6-2.3,0-4.3-.2-6.7-.4-2.9-.3-6.1-.6-10.6-.6-19,0-32.3,13-32.3,31.6s12.9,30.8,32,30.8,11.1-1.1,14.4-2c1.9-.5,3.4-.9,4.7-.9s2.2-.2,2.3-1.7c.3-4.6,1.5-7.8,2.2-9.7.3-.9.5-1.5.5-1.8,0-1.2-.9-2-2.5-2" style="fill: #534743;"/>
      <path d="M487.7,156.9c-.5,0-1,.2-1.6.4-.7.2-1.4.5-2.3.5-1.7,0-2.4-.7-2.4-4.8v-43.2c0-4.1.7-4.8,2.4-4.8s1.7.3,2.3.5c.5.2,1.1.4,1.6.4,1.8,0,2.5-1.2,2.5-2.4s-1-2.5-2.8-2.5-2.9,0-4.4.2c-1.7,0-3.5.2-5.5.2s-3.8,0-5.5-.2c-1.5,0-3-.2-4.4-.2s-2.8,1.3-2.8,2.5.8,2.4,2.5,2.4,1-.2,1.6-.4c.7-.2,1.4-.5,2.3-.5,1.7,0,2.4.7,2.4,4.8v43.2c0,4.1-.7,4.8-2.4,4.8s-1.7-.3-2.3-.5c-.5-.2-1-.4-1.6-.4-1.8,0-2.5,1.2-2.5,2.4s1,2.5,2.8,2.5,2.9,0,4.4-.2c1.7-.1,3.5-.2,5.5-.2s3.8.1,5.5.2c1.5,0,3,.2,4.4.2s2.8-1.3,2.8-2.5-.8-2.4-2.5-2.4" style="fill: #534743;"/>
      <path d="M520.7,156.8c-.9,0-1.5.3-2,.5s-.9.4-1.4.4c-2.3,0-4.2-2.4-9.1-9.9l-3.6-5.6c-4.5-7-8.7-11.6-15.2-12.9l16.8-17.4c4.4-4.6,7.2-6.7,8.7-6.7s1.3.2,1.6.4c.4.2.7.3,1.4.3,1.8,0,2.5-1.2,2.5-2.4s-.9-2.5-2.7-2.5-2.6,0-3.9.2c-1.4,0-2.8.2-4.4.2s-4,0-5.8-.2c-1.5,0-3-.2-4.4-.2s-2.8,1.3-2.8,2.5.8,2.4,2.6,2.4,1.2-.2,1.8-.4c.6-.2,1.1-.3,1.7-.3s.8.3.9.4c.3.6-.3,2.1-1.4,3.3l-17.8,20.2c-.6.7-.8,1.3-.8,2.2,0,1.3,1,2.1,2.5,2.1,2.5,0,5,2.3,9.1,8.4l5.5,8.1h0c6.7,9.7,10,12,16.9,12h2.5c2.3,0,3.2-1.4,3.2-2.6s-.9-2.3-2.5-2.3" style="fill: #534743;"/>
      <path d="M278.1,51.4h-32.9c4.9-12.2,9.7-27,13.3-32.1,1.3-1.9,1.9-2.5,3.2-2.5s1.8.6,3.2,2.5c3.6,5.1,8.4,19.9,13.3,32.1M335.4,68.1c-3.2-1.3-5.7.4-6.3,2-1.4,3.6.5,4.4-.7,7.4-2.3,5.9-13.4,4.5-18.8,2.4-3.3-1.3-6.1-3-8.5-5-4.4-3.8-8.3-9.1-11.1-16.7-5.6-14.9-10.8-27.7-19.3-39.2l-2.1-2.8c9.9-1.2,25.3-1.3,26.5,8.6.4,3.2-1.9,4.2-1.3,8.5.3,2.2,1.8,4.1,4.1,3.8,2.9-.4,4.7-3.1,4.2-7.3-1.7-14.2-17.2-21.9-34.4-19.8-2.2.3-9.9,1.7-12.3,2-2.7.3-5-.6-5.4-4.1-.2-1.2-.1-2.8-.3-4.2-.3-2.1-1-3.9-3.7-3.5-2.9.4-3.7,3.8-3.4,6.2.7,5.7,6.7,8.9,11.9,10l-1.9,2.7c-8.5,11.6-13.7,24.4-19.3,39.2-2.8,7.6-6.7,12.9-11.1,16.7-2.5,2-5.2,3.7-8.5,5-5.5,2.1-16.5,3.5-18.8-2.4-1.2-2.9.7-3.8-.7-7.4-.6-1.6-3.1-3.3-6.3-2-3.1,1.2-4.1,3.8-3,6.5,4,10.2,19,13.9,32.7,8.5,3.5-1.4,6.8-3.5,9.9-6.3,6-5.1,11.2-11.7,14.9-19.2h38.4c3.8,7.5,8.9,14.1,14.9,19.2,3.1,2.8,6.4,4.9,9.9,6.3,13.8,5.4,28.7,1.7,32.7-8.5,1.1-2.7.1-5.3-3-6.5" style="fill: #534743;"/>
</svg>