<?xml version="1.0" encoding="UTF-8"?>
<svg xmlns="http://www.w3.org/2000/svg" version="1.1" viewBox="0 0 32 33.7">
  <path d="M8.2,23c-.8,0-1.6,0-2.4,0-.9,0-1.6.7-1.7,1.6,0,0,0,0,0,0,0,.8,0,1.6,0,2.5,0,.9.7,1.6,1.6,1.7.8,0,1.7,0,2.5,0,.9,0,1.6-.7,1.6-1.6,0,0,0,0,0,0v-2.4c0-.9-.7-1.6-1.5-1.7,0,0,0,0-.1,0M8.2,27h-2.4v-2.4h2.4v2.4ZM27.9,15.6c0-.8-.7-1.6-1.5-1.6-.9,0-1.9,0-2.8,0-.8,0-1.5.8-1.5,1.6,0,.8,0,1.6,0,2.5,0,.9.6,1.6,1.5,1.6,0,0,0,0,0,0,.9,0,1.8,0,2.7,0,.9,0,1.6-.8,1.5-1.6,0-.4,0-.8,0-1.2s0-.8,0-1.2M26.2,18h-2.4v-2.4h2.4v2.4ZM17.2,23h-2.5c-.9,0-1.6.6-1.6,1.5,0,.9,0,1.8,0,2.8,0,.8.8,1.5,1.6,1.5.8,0,1.7,0,2.5,0,.8,0,1.6-.7,1.6-1.5,0-.9,0-1.9,0-2.8,0-.8-.8-1.5-1.6-1.4M17.2,27h-2.4v-2.4h2.4v2.4ZM5.6,19.7c.9,0,1.8,0,2.8,0,.9,0,1.5-.8,1.5-1.6v-2.4c0-.9-.6-1.6-1.5-1.7,0,0,0,0,0,0-.9,0-1.8,0-2.7,0-.8,0-1.5.7-1.5,1.6,0,.8,0,1.7,0,2.5,0,.8.7,1.5,1.5,1.6M5.8,15.6h2.4v2.4h-2.4v-2.4ZM14.6,19.7c.9,0,1.8,0,2.8,0,.8,0,1.4-.7,1.5-1.5,0-.9,0-1.9,0-2.8,0-.8-.7-1.4-1.4-1.4-.5,0-.9,0-1.4,0h0c-.4,0-.9,0-1.3,0-.8,0-1.5.7-1.5,1.5,0,.9,0,1.8,0,2.7,0,.8.7,1.5,1.5,1.5M14.8,15.6h2.4v2.4h-2.4v-2.4ZM32,6.6c0-1.6-.9-3.1-2.4-3.8h0c-.1,0-.2,0-.3-.1h0c-.1,0-.2,0-.3,0h0c0,0-.2,0-.3,0-.3,0-.6,0-.9,0h-2.2C25.1.8,24.2,0,23,0s-2.1.8-2.5,2.4h-8.9C11.1.8,10.3,0,9,0c-.5,0-1.1.2-1.5.5-.6.5-1,1.2-1,1.9-.8,0-1.7,0-2.5,0C1.8,2.5,0,4.3,0,6.6v22.9c0,.3,0,.7.1,1,.5,1.9,2.2,3.1,4.1,3.1,2.9,0,5.9,0,8.8,0,0,0,0,0,0,0h14.7c1.9,0,3.6-1.2,4.1-3.1,0-.3.1-.7.1-1,0-7.6,0-15.3,0-22.9M22.2,2.4c0-.4.4-.8.8-.8.4,0,.8.4.8.8h0c0,.3,0,.5,0,.8s0,.5,0,.8c0,.4-.3.8-.8.8s-.8-.3-.8-.8c0-.6,0-1.2,0-1.8M8.2,2.5c0-.4.3-.8.7-.9,0,0,0,0,0,0,.4,0,.8.3.8.8,0,0,0,0,0,0,0,.3,0,.5,0,.8s0,.5,0,.8c0,.4-.4.8-.8.8,0,0,0,0,0,0-.4,0-.8-.4-.8-.8,0,0,0,0,0,0,0-.5,0-1,0-1.5M1.7,6.2c.1-1.1,1-1.9,2.1-2,.9,0,1.8,0,2.7,0,.4,1.6,1.2,2.4,2.5,2.4s2.1-.7,2.6-2.4h8.9c.4,1.7,1.3,2.5,2.6,2.4,1.3,0,2.4-1.1,2.4-2.5h.8c.7,0,1.3,0,2,0,.1,0,.3,0,.4,0,.3.1.6.3.9.5.5.4.8,1,.8,1.6,0,.9,0,1.7,0,2.6H1.7c0-1,0-1.9,0-2.8M30.3,29.3c.1,1.1-.6,2.2-1.7,2.5-.3,0-.7.1-1,.1-2.9,0-5.8,0-8.7,0,0,0,0,0,0,0-.1,0-.3,0-.4,0-4.7,0-9.5,0-14.2,0-.3,0-.7,0-1-.1-1.1-.4-1.8-1.4-1.7-2.5V10.7h25.6,0s3,0,3,0v8.5c0,0,0,.2,0,.3v9.8M27.7,24.7c0-.8-.7-1.6-1.5-1.6-.9,0-1.9,0-2.8,0-.8,0-1.5.8-1.5,1.6,0,.8,0,1.6,0,2.5,0,.9.6,1.6,1.5,1.6,0,0,0,0,0,0,.9,0,1.8,0,2.7,0,.9,0,1.6-.8,1.5-1.6,0-.4,0-.8,0-1.2s0-.8,0-1.2M26.1,27.1h-2.4v-2.4h2.4v2.4Z" style="fill: #707070;"/>
</svg>