<?xml version="1.0" encoding="UTF-8"?>
<svg xmlns="http://www.w3.org/2000/svg" version="1.1" viewBox="0 0 32.7 20.8">
  <path d="M32.7,1.8c0-.7-.2-1.8-2-1.8H2.5C.7,0,0,.9,0,1.7v17c0,1.2.9,2.1,2.1,2.1h28.5c1.2,0,2.1-.9,2.1-2.1V1.8ZM30.8,17.3c0,1-.9,1.8-1.9,1.8,0,0,0,0,0,0H3.8c-1,0-1.8-.8-1.9-1.8,0,0,0,0,0,0V5.1l12.6,8.9c.5.5,1.2.8,1.9.9.6,0,1.2-.3,1.6-.7l12.8-9v12.1h0ZM3.7,18.1c-.2,0-.4-.1-.5-.3-.2-.3,0-.7.2-.8,0,0,0,0,0,0l7.2-4c.3-.2.7,0,.8.2.2.3,0,.7-.2.8,0,0,0,0,0,0l-7.2,4c0,0-.2,0-.3,0M29.1,18.1c-.1,0-.2,0-.3,0l-7.2-4c-.3-.2-.4-.5-.3-.8s.5-.4.8-.3c0,0,0,0,0,0l7.2,4c.3.2.4.5.2.8-.1.2-.3.3-.5.3" style="fill: #707070;"/>
</svg>