<?xml version="1.0" encoding="UTF-8"?>
<svg xmlns="http://www.w3.org/2000/svg" version="1.1" viewBox="0 0 28.6 33.1">
  <path d="M27,24.7c2,1.8,2.1,4.8.4,6.7-1.8,2-4.8,2.1-6.7.4-1-.9-1.6-2.2-1.6-3.6h1.8c0,1.6,1.3,3,3,3,1.6,0,3-1.3,3-3,0-1.2-.7-2.3-1.8-2.7M16.7,33.1l-2.4-4.8h2.1l2.4,4.8h-2.1ZM12.8,33.1l-2.4-4.8h2.1l2.4,4.8h-2.1ZM8.8,33.1l-2.4-4.8h2.1l2.4,4.8h-2.1ZM4.9,33.1l-2.4-4.8h2.1l2.4,4.8h-2.1ZM1.1,33.1l-1.1-2.2h2.1l1.1,2.2H1.1ZM25.4,22.7v-5c0-.5-.4-.9-.9-.9h0l-6-1.1c-.5,0-.9.4-.9.9v1.2c-1.8-.2-4.4-3.2-5.6-4.4s-4.2-3.8-4.4-5.6h1.2c.5,0,.9-.4.9-.9l-1.1-6C8.7.4,8.2,0,7.7,0c0,0,0,0,0,0H2.8c-.5,0-.9.4-.9.9.1,6,2.6,11.6,7,15.7,4.3,4,9.8,6.5,15.7,7,.5,0,.9-.4.9-.9" style="fill: #707070;"/>
</svg>